<?xml version="1.0" encoding="utf-8"?>
<!-- Generator: Adobe Illustrator 26.1.0, SVG Export Plug-In . SVG Version: 6.00 Build 0)  -->
<svg version="1.1" xmlns="http://www.w3.org/2000/svg" xmlns:xlink="http://www.w3.org/1999/xlink" x="0px" y="0px"
	 viewBox="0 0 35 33" style="enable-background:new 0 0 35 33;" xml:space="preserve">
<g id="Layer_1">
	<path d="M10.2,16.5c0.1,0.5,0.1,1,0.3,1.5c0-0.3,0-0.7,0-1c0-0.2,0-0.5,0-0.7c0-0.1,0-0.2,0.1-0.3c0.5-0.5,1-1.1,1.6-1.5
		c0.1-0.1,0.3-0.2,0.4-0.2c0.1-0.1,0.2,0,0.2,0.1c0.1,0.2,0.1,0.4,0.2,0.6c0,0.2,0,0.4,0.1,0.6c0,0.1,0,0.1,0.1,0.2
		c0.1-0.3,0-0.5,0.1-0.8c0-0.1,0-0.2,0-0.4c0.1-0.5,0.3-0.9,0.7-1.2c0.3-0.2,0.5-0.3,0.7-0.5c0.5-0.4,1-0.7,1.6-1.1
		c0.1,0,0.1-0.1,0.2-0.1c-0.3,0.7-0.5,1.4-0.7,2.1c0.1-0.2,0.2-0.5,0.3-0.7c0.2-0.5,0.4-0.9,0.7-1.4c0.1-0.3,0.3-0.4,0.6-0.6
		c0.5-0.4,1.1-0.7,1.6-1.1c0.2-0.2,0.4-0.3,0.7-0.5c0,0.3-0.2,0.5-0.2,0.8c0.1-0.1,0.2-0.2,0.3-0.4c0.1-0.3,0.3-0.6,0.7-0.7
		c0.4-0.2,0.8-0.4,1.3-0.5C22,8.7,22,8.7,22,8.9c0,0.3-0.2,0.5-0.3,0.8c-0.1,0.1-0.1,0.2-0.2,0.4c0.1,0,0.1-0.1,0.2-0.2
		c0.3-0.4,0.6-0.7,1-1.1c0.2-0.2,0.5-0.4,0.7-0.5c0.7-0.3,1.5-0.6,2.3-0.8c0.1,0,0.1-0.1,0.2,0c0,0.1,0,0.1-0.1,0.2
		c-0.1,0.1-0.2,0.3-0.3,0.4C25.6,8.1,25.7,8,25.8,8c0.3-0.3,0.7-0.5,1.1-0.7c0.4-0.1,0.8-0.2,1.2-0.3c0.2,0,0.1,0,0.1,0.1
		c0,0.1-0.1,0.2-0.2,0.3c-0.1,0.1-0.1,0.1-0.1,0.2c0.2-0.1,0.4-0.2,0.6-0.3c0.5-0.3,1-0.6,1.5-0.6c1-0.1,2-0.2,3-0.2
		c0.3,0,0.7,0,1,0c0.1,0,0.2,0.1,0.1,0.2c-0.1,0.2-0.3,0.3-0.5,0.4c-0.2,0.1-0.3,0.2-0.5,0.3c-0.3,0.3-0.8,0.3-1.2,0.4
		c-0.2,0-0.3,0.1-0.5,0.1c0.4-0.1,0.7-0.1,1.1-0.2c0,0,0,0,0,0c-0.1,0-0.1,0.1-0.2,0.1c-0.4,0.2-0.7,0.5-1.1,0.7
		c-0.5,0.3-1,0.4-1.5,0.5c-0.6,0.1-1.1,0.2-1.7,0.3c0.8-0.1,1.6-0.2,2.4-0.3c0,0,0,0,0,0c-0.1,0.1-0.2,0.1-0.2,0.2
		c-0.5,0.4-1.1,0.8-1.6,1.2c-0.5,0.4-1.1,0.6-1.8,0.6c-0.3,0-0.6,0-0.9,0.1c0.4,0,0.8,0,1.3,0c0,0.1-0.1,0.1-0.1,0.1
		c-0.7,0.4-1.3,0.8-2,1.3c-0.3,0.2-0.6,0.4-0.9,0.6c-0.1,0.1-0.2,0.1-0.3,0.1c-0.6,0.1-1.2,0-1.8,0c-0.1,0-0.1,0-0.2,0
		c0.4,0,0.7,0.1,1.1,0.1c0.1,0,0.3,0,0.4,0.1c0.2,0,0.2,0.1,0.1,0.2c-0.3,0.3-0.7,0.6-1.1,0.9c-0.7,0.6-0.5,0.5-1.4,0.5
		c-0.1,0-0.3,0-0.4,0c0.2,0.1,0.5,0.3,0.7,0.3c0,0.1,0,0.1-0.1,0.1c-0.4,0.3-0.9,0.7-1.3,1.1C20,16.9,19.8,17,19.6,17
		c-0.7,0-1.3,0.1-2,0.1c-0.1,0-0.1,0-0.2,0c0.7,0.1,1.4,0,2.1,0.1c-0.2,0.3-0.4,0.5-0.6,0.7c-0.1,0.1-0.2,0.3-0.3,0.4
		c-0.3,0.2-0.7,0.3-1,0.4c-0.8,0.1-1.5,0.3-2.3,0.4c0,0,0,0-0.1,0c0.9-0.1,1.8-0.2,2.8-0.2c-0.2,0.2-0.3,0.3-0.4,0.4
		c-0.4,0.5-0.9,0.9-1.3,1.4c-0.4,0.5-0.9,0.8-1.5,1.1c-0.3,0.1-0.7,0.1-1,0.1c-0.4,0-0.8-0.1-1.3-0.1c0.4,0.1,0.8,0.3,1.2,0.4
		c0,0,0,0,0,0c-0.4,0-0.8,0.1-1.2,0.1c-0.5,0-0.9,0.1-1.4,0.1c-0.1,0-0.2,0-0.2,0.1c-0.3,0.5-0.7,1.1-1,1.6c0,0-0.1,0.1,0,0.2
		c0,0,0,0.1,0,0.1c-0.1,0.1-0.2,0.2-0.2,0.4C9.8,25,9.8,25,9.7,25.2c-0.1,0.1-0.1,0.1-0.2,0.1c-0.1-0.1-0.1,0-0.2,0.1
		c-0.2,0.5-0.4,1-0.7,1.6c-0.1,0.2-0.2,0.3-0.4,0.3c-0.5,0.1-0.8,0.5-1.2,0.9c0.7-0.1,1.4-0.2,2.1-0.2c1-0.1,2,0,3,0
		c0.8,0,1.6,0,2.3,0c1.6,0,3.3,0.1,4.9,0.1c1.3,0,2.6,0,3.9-0.2c0.7-0.1,1.4-0.2,2.1-0.5c0.3-0.1,0.6-0.3,0.7-0.6
		c0.2-0.5,0.1-0.9-0.2-1.2c-0.3-0.3-0.7-0.5-1.1-0.6c-1.6-0.4-3.2-0.4-4.7,0.1c-0.3,0.1-0.5,0.2-0.8,0.4c-0.2,0.2-0.2,0.4,0,0.6
		c0.4,0.3,0.8,0.4,1.3,0.4c1.1,0.2,2.2,0,3.3-0.2c0.2,0,0.3-0.1,0.5-0.2c0.1-0.1,0.1-0.1,0-0.2c-0.3-0.2-0.6-0.2-0.9-0.3
		c-0.1,0-0.2,0-0.2-0.1c0.4,0,0.7,0.1,1.1,0.2c0,0,0.1,0,0.1,0c0.1,0.1,0.2,0.1,0.2,0.3c0,0.1-0.1,0.2-0.2,0.3
		c-0.3,0.2-0.6,0.2-0.9,0.3c-1,0.2-1.9,0.3-2.9,0.1c-0.4,0-0.7-0.1-1-0.3c-0.2-0.1-0.4-0.2-0.5-0.3c-0.2-0.3-0.2-0.6,0-0.8
		c0.2-0.3,0.5-0.4,0.8-0.5c0.6-0.3,1.2-0.4,1.9-0.4c1.1-0.1,2.2-0.1,3.2,0.2c0.5,0.1,0.9,0.3,1.3,0.7c0.6,0.6,0.5,1.5-0.1,2.1
		c-0.4,0.3-0.9,0.5-1.4,0.6c-0.8,0.2-1.6,0.3-2.5,0.4c-1.6,0.1-3.3,0.1-4.9,0.1c-1.5,0-3.1-0.1-4.6-0.1c-0.9,0-1.8,0-2.6,0
		c-1,0-2,0-3,0c-0.1,0-0.2,0-0.1-0.2c0.3-0.5,0.6-1,1-1.5c0-0.1,0.1-0.1,0.1-0.1c0.2,0,0.2-0.1,0.2-0.3c0-0.1-0.1-0.2-0.2-0.2
		c-0.2,0-0.3,0.2-0.2,0.3c0.1,0.1,0,0.2-0.1,0.3C7.6,27,7.3,27.5,7,27.9c0,0,0,0.1-0.1,0.1c0,0-0.1,0.1-0.1,0c-0.1,0,0-0.1,0-0.1
		c0.1-0.2,0.2-0.4,0.3-0.7c0-0.2,0.1-0.4,0-0.6c-0.1-0.2,0-0.4,0.1-0.5c0.4-0.4,0.7-0.9,1.1-1.3c0.1-0.1,0.1-0.1,0-0.2
		c-0.1,0-0.1-0.1,0-0.2c0.1-0.1,0.1-0.2,0.3-0.2c0.1,0,0.1,0,0.2-0.1c0.5-0.7,0.8-1.4,1.3-2.1C10,22,10,21.9,10,21.8
		c-0.1-0.6-0.2-1.3-0.3-2c-0.1-0.4,0-0.8,0-1.2c0.1-0.6,0.1-1.1,0.3-1.7C10.1,16.8,10.1,16.7,10.2,16.5z M29.7,7.9
		C29.7,7.8,29.7,7.8,29.7,7.9c-0.2,0-0.4,0.1-0.6,0.1c-1.8,0.6-3.6,1.2-5.3,2.1c-0.3,0.2-0.6,0.3-0.9,0.4c-1.3,0.7-2.6,1.5-3.7,2.4
		c-1,0.8-2.1,1.6-3.1,2.6c-0.9,0.9-1.8,1.8-2.6,2.7c-1.1,1.2-2.1,2.3-3,3.7c-0.4,0.7-0.9,1.3-1.2,2c0,0.1,0,0.1,0,0.2
		c0.1,0,0.1,0.2,0.2,0c0.1-0.2,0.2-0.4,0.4-0.6c0.6-1,1.3-1.9,1.9-2.8c0.7-0.9,1.4-1.7,2.2-2.6c0.9-0.9,1.8-1.8,2.7-2.7
		c1-1,2.2-1.9,3.3-2.8c1.4-1.1,3.1-1.9,4.7-2.7c1.2-0.6,2.4-1,3.6-1.5C28.8,8.2,29.2,8,29.7,7.9z M8.2,27.2c0.1,0,0.2-0.1,0.3-0.2
		c0.2-0.5,0.4-1.1,0.6-1.6c0-0.1,0.1-0.1,0-0.2C9,25.1,9,25.2,9,25.2c-0.3,0.6-0.5,1.2-0.8,1.8C8.2,27.1,8.2,27.1,8.2,27.2
		C8.2,27.2,8.2,27.2,8.2,27.2z M8.8,24.7C8.7,24.7,8.7,24.8,8.8,24.7C9,24.9,9.2,25,9.5,25.2c0.1,0,0.1,0,0.2-0.1
		c0-0.1,0-0.1-0.1-0.1C9.3,24.9,9,24.8,8.8,24.7z"/>
</g>
<g id="Layer_2">
	<rect x="5" y="26.6" width="1.1" height="1.1"/>
	<rect x="3.9" y="25.5" width="1.1" height="1.1"/>
	<rect x="5" y="24.4" width="1.1" height="1.1"/>
	<rect x="1.7" y="22.2" transform="matrix(-1 -1.224647e-16 1.224647e-16 -1 4.5514 45.4615)" width="1.1" height="1.1"/>
	<rect x="2.8" y="23.3" transform="matrix(-1 -1.224647e-16 1.224647e-16 -1 6.762 47.6722)" width="1.1" height="1.1"/>
	<rect x="1.7" y="24.4" transform="matrix(-1 -1.224647e-16 1.224647e-16 -1 4.5514 49.9069)" width="1.1" height="1.1"/>
	<rect x="3.9" y="19.9" transform="matrix(6.123234e-17 -1 1 6.123234e-17 -16.0037 24.9884)" width="1.1" height="1.1"/>
	<rect x="2.8" y="21" transform="matrix(6.123234e-17 -1 1 6.123234e-17 -18.2144 24.9884)" width="1.1" height="1.1"/>
	<rect x="1.7" y="19.9" transform="matrix(6.123234e-17 -1 1 6.123234e-17 -18.2264 22.7657)" width="1.1" height="1.1"/>
	<polygon points="2.6,17.3 3.7,16.8 4.2,17.9 3.1,18.5 	"/>
	<polygon points="5.2,18 6.4,18.2 6.2,19.4 5,19.2 	"/>
	<rect x="7.9" y="10.7" transform="matrix(6.123234e-17 -1 1 6.123234e-17 -2.595 20.4064)" width="1.9" height="1.7"/>
	<rect x="5.2" y="15.5" transform="matrix(6.123234e-17 -1 1 6.123234e-17 -10.1802 22.2089)" width="1.6" height="1.4"/>
	<rect x="3.7" y="11.9" transform="matrix(6.123234e-17 -1 1 6.123234e-17 -8.0677 17.3693)" width="1.9" height="1.7"/>
	<polygon points="2.1,11.6 2.5,13.2 1.1,13.6 0.8,12.1 	"/>
</g>
</svg>
